<?xml version="1.0" encoding="iso-8859-1"?>
<!-- Uploaded to: SVG Repo, www.svgrepo.com, Generator: SVG Repo Mixer Tools -->
<svg height="800px" width="800px" version="1.1" id="Layer_1" xmlns="http://www.w3.org/2000/svg" xmlns:xlink="http://www.w3.org/1999/xlink" 
	 viewBox="0 0 512 512" xml:space="preserve">
<circle style="fill:#FFD15D;" cx="256" cy="256" r="256"/>
<path style="fill:#F9B54C;" d="M257.56,511.981c140.145-0.838,253.581-114.276,254.419-254.419L371.645,117.226l-109.539,37.638
	v85.418l-52.795-52.795l-10.566,15.481l-51.752-51.752l-11.092,49.619l-18.677,78.295l100.721,100.721l-77.591,14.924
	L257.56,511.981z"/>
<path style="fill:#F1543F;" d="M279.13,232.87v-69.387h46.258c25.548,0,46.258-20.711,46.258-46.258H232.87V232.87h-69.387v-46.258
	c0-25.548-20.711-46.258-46.258-46.258V279.13H232.87v69.387h-46.258c-25.548,0-46.258,20.711-46.258,46.258H279.13V279.13h69.387
	v46.258c0,25.548,20.711,46.258,46.258,46.258V232.87L279.13,232.87L279.13,232.87z"/>
<path style="fill:#C1321F;" d="M279.13,232.87v-69.387h46.258c25.548,0,46.258-20.711,46.258-46.258H255.426v277.549h23.702V279.13
	h69.387v46.258c0,25.548,20.711,46.258,46.258,46.258V232.87L279.13,232.87L279.13,232.87z"/>
<circle style="fill:#FC6F58;" cx="199.111" cy="197.387" r="14.222"/>
<circle style="fill:#F1543F;" cx="312.889" cy="197.387" r="14.222"/>
<circle style="fill:#FC6F58;" cx="199.111" cy="314.613" r="14.222"/>
<circle style="fill:#F1543F;" cx="312.889" cy="314.613" r="14.222"/>
</svg>